<svg width="150" height="30" viewBox="0 0 533 100" fill="none" xmlns="http://www.w3.org/2000/svg">
<path d="M30.991 0L30.3201 2.27887V68.4004L30.991 69.0697L61.6833 50.9273L30.991 0Z" fill="#343434"/>
<path d="M30.991 0L0.297943 50.9273L30.991 69.0697V36.9762V0Z" fill="#8C8C8C"/>
<path d="M30.991 74.8808L30.6129 75.3419V98.8954L30.991 99.9992L61.7021 56.7477L30.991 74.8808Z" fill="#3C3C3B"/>
<path d="M30.991 99.9992V74.8808L0.297943 56.7477L30.991 99.9992Z" fill="#8C8C8C"/>
<path d="M30.991 69.0697L61.6833 50.9273L30.991 36.9762V69.0697Z" fill="#141414"/>
<path d="M0.297943 50.9273L30.991 69.0697V36.9762L0.297943 50.9273Z" fill="#393939"/>
<path d="M99.1136 74V27.4545H128.295V33.5H106.136V47.6818H126.773V53.7045H106.136V67.9545H128.568V74H99.1136ZM148.181 33.5V27.4545H184.203V33.5H169.681V74H162.681V33.5H148.181ZM204.964 74V27.4545H211.986V47.6818H235.191V27.4545H242.236V74H235.191V53.7045H211.986V74H204.964ZM265.264 74V27.4545H294.445V33.5H272.286V47.6818H292.923V53.7045H272.286V67.9545H294.718V74H265.264ZM316.626 74V27.4545H333.217C336.823 27.4545 339.816 28.0758 342.194 29.3182C344.588 30.5606 346.376 32.2803 347.558 34.4773C348.74 36.6591 349.331 39.1818 349.331 42.0455C349.331 44.8939 348.732 47.4015 347.535 49.5682C346.353 51.7197 344.566 53.3939 342.172 54.5909C339.793 55.7879 336.8 56.3864 333.194 56.3864H320.626V50.3409H332.558C334.831 50.3409 336.679 50.0152 338.103 49.3636C339.543 48.7121 340.596 47.7652 341.262 46.5227C341.929 45.2803 342.262 43.7879 342.262 42.0455C342.262 40.2879 341.922 38.7651 341.24 37.4773C340.573 36.1894 339.52 35.2045 338.081 34.5227C336.656 33.8258 334.785 33.4773 332.467 33.4773H323.649V74H316.626ZM339.603 53L351.103 74H343.103L331.831 53H339.603ZM370.676 74V27.4545H399.858V33.5H377.699V47.6818H398.335V53.7045H377.699V67.9545H400.131V74H370.676ZM451.97 27.4545H459.016V58.0682C459.016 61.3258 458.251 64.2121 456.72 66.7273C455.19 69.2273 453.039 71.197 450.266 72.6364C447.493 74.0606 444.243 74.7727 440.516 74.7727C436.804 74.7727 433.561 74.0606 430.789 72.6364C428.016 71.197 425.864 69.2273 424.334 66.7273C422.804 64.2121 422.039 61.3258 422.039 58.0682V27.4545H429.061V57.5C429.061 59.6061 429.523 61.4773 430.448 63.1136C431.387 64.75 432.713 66.0379 434.425 66.9773C436.137 67.9015 438.167 68.3636 440.516 68.3636C442.88 68.3636 444.917 67.9015 446.63 66.9773C448.357 66.0379 449.675 64.75 450.584 63.1136C451.508 61.4773 451.97 59.6061 451.97 57.5V27.4545ZM482.026 27.4545H490.549L505.367 63.6364H505.913L520.731 27.4545H529.253V74H522.572V40.3182H522.14L508.413 73.9318H502.867L489.14 40.2955H488.708V74H482.026V27.4545Z" fill="black"/>
</svg>
