<svg width="50" height="50" viewBox="0 0 117 84" fill="none" xmlns="http://www.w3.org/2000/svg">
<path d="M108.662 38.1069C103.782 33.1716 97.0317 30.0162 89.4677 30.0162C82.9611 30.0162 77.3491 32.2816 72.3877 36.246C70.1917 37.945 67.9957 39.9677 65.1491 42.7185C63.6851 44.013 23.0997 83.3334 23.0997 83.3334C25.2957 83.657 28.1424 83.657 30.8264 83.7379C33.2664 83.7379 80.0331 83.7379 81.9851 83.7379C85.8891 83.7379 88.4917 83.7379 91.2571 83.5761C97.6011 83.0907 103.538 80.8253 108.337 76.1327C118.992 65.6958 119.154 48.7056 108.662 38.1069ZM100.854 68.6085C98.7397 70.6311 95.0797 72.9774 89.0611 73.2201C86.2144 73.301 82.9611 73.301 81.4157 73.301H48.8011C60.5944 61.8933 71.0051 51.8609 72.1437 50.7282C73.2011 49.6764 75.6411 47.4111 77.7557 45.5502C82.3917 41.5049 86.4584 40.6149 89.3864 40.6958C93.9411 40.7768 98.0891 42.6376 101.098 45.5502C107.442 51.9418 107.361 62.2978 100.854 68.6085Z" fill="#00A1FF"/>
<path d="M43.1077 35.5988C38.3091 32.0389 32.9411 30.0162 26.9224 30.0162C19.3584 30.0162 12.6077 33.0907 7.72772 38.1069C-2.68294 48.7056 -2.60161 65.6958 8.13439 76.1327C12.4451 80.3399 17.6504 82.6052 23.1811 83.4143L33.5917 73.301C31.8837 73.301 29.5251 73.2201 27.3291 73.2201C21.2291 73.0583 17.5691 70.712 15.5357 68.6085C9.02906 62.2978 8.86639 51.9418 15.2104 45.5502C18.1384 42.5567 22.3677 40.6958 26.9224 40.6958C29.7691 40.6958 33.6731 41.5049 38.0651 45.1457C40.1797 46.8447 44.8157 50.9709 46.8491 52.7509C46.9304 52.8318 47.0931 52.8318 47.1744 52.7509L54.4131 45.712C54.4944 45.6311 54.4944 45.3884 54.4131 45.3884C50.9157 42.0713 46.0357 37.7832 43.1077 35.5988Z" fill="#00C4D6"/>
<path d="M92.3144 24.0291C87.2717 10.0324 73.8517 0 58.1544 0C40.0171 0 25.0517 13.1877 22.3677 30.3398C23.8317 30.0971 25.2957 30.0162 26.8411 30.0162C29.0371 30.0162 31.0704 30.2589 32.9411 30.7443C33.0224 30.7443 33.0224 30.7443 33.0224 30.7443C35.4624 19.1748 45.7917 10.5178 58.0731 10.5178C68.3211 10.5178 77.2677 16.6667 81.3344 25.3236C81.4157 25.4045 81.4971 25.4854 81.6597 25.4854C84.7504 24.6764 88.3291 24.1909 91.9077 24.4337C92.2331 24.5146 92.3144 24.3528 92.3144 24.0291Z" fill="#006EFF"/>
</svg>