<svg width="24" height="24" viewBox="0 0 24 24" fill="none" xmlns="http://www.w3.org/2000/svg">
<path fill-rule="evenodd" clip-rule="evenodd" d="M8.75 10.096C8.75 9.42246 8.88959 9.14507 9.01733 9.01733C9.14507 8.88959 9.42246 8.75 10.096 8.75H11.25V9.896C11.25 10.7215 11.41 11.4941 11.9559 12.0415C12.5023 12.5896 13.2736 12.75 14.096 12.75H15.25V13.896C15.25 14.5745 15.11 14.8533 14.9817 14.9817C14.8533 15.11 14.5745 15.25 13.896 15.25H12H10.096C9.42242 15.25 9.14567 15.1104 9.01812 14.9825C8.88999 14.8539 8.75 14.5745 8.75 13.896V12V10.096ZM7.25 11.25V10.096C7.25 9.27354 7.41041 8.50293 7.95667 7.95667C8.50293 7.41041 9.27354 7.25 10.096 7.25H12C12.4142 7.25 12.75 7.58579 12.75 8V9.896C12.75 10.5745 12.89 10.8539 13.0181 10.9825C13.1457 11.1104 13.4224 11.25 14.096 11.25H16C16.4142 11.25 16.75 11.5858 16.75 12V13.896C16.75 14.7215 16.59 15.4947 16.0423 16.0423C15.4947 16.59 14.7215 16.75 13.896 16.75H12.75V17.904C12.75 18.7264 12.5896 19.4977 12.0415 20.0441C11.4941 20.59 10.7215 20.75 9.896 20.75H6.096C5.27354 20.75 4.50293 20.5896 3.95667 20.0433C3.41041 19.4971 3.25 18.7265 3.25 17.904V14.104C3.25 13.2785 3.41001 12.5059 3.95588 11.9585C4.50233 11.4104 5.27358 11.25 6.096 11.25H7.25ZM7.25 12.75H6.096C5.42242 12.75 5.14567 12.8896 5.01812 13.0175C4.88999 13.1461 4.75 13.4255 4.75 14.104V17.904C4.75 18.5775 4.88959 18.8549 5.01733 18.9827C5.14507 19.1104 5.42246 19.25 6.096 19.25H9.896C10.5745 19.25 10.8539 19.11 10.9825 18.9819C11.1104 18.8543 11.25 18.5776 11.25 17.904V16.75H10.096C9.27358 16.75 8.50233 16.5896 7.95588 16.0415C7.41001 15.4941 7.25 14.7215 7.25 13.896V12.75Z" fill="#333" id="threeSquare" fill-opacity="0.25"/>
<path d="M20 6.096V9.896C20 11.4 19.4 12 17.896 12H14.096C12.6 12 12 11.4 12 9.896V6.096C12 4.6 12.6 4 14.096 4H17.896C19.4 4 20 4.6 20 6.096Z" stroke="#333" id="threeSquare" stroke-width="1.5" stroke-linecap="round" stroke-linejoin="round"/>
</svg>